# MagicaVoxel @ ephtracy

# material
mtllib Gun.mtl
usemtl palette

# normals
vn -1 0 0
vn 1 0 0
vn 0 0 1
vn 0 0 -1
vn 0 -1 0
vn 0 1 0

# texcoords
vt 0.982422 0.5
vt 0.986328 0.5
vt 0.994141 0.5

# verts
v 14 20 -0
v 14 20 -2
v 14 24 -0
v 14 24 -2
v 14 25 -0
v 14 25 -2
v 17 25 -0
v 17 25 -2
v 17 26 -0
v 17 26 -2
v 16 20 -0
v 16 20 -2
v 16 22 -0
v 16 22 -1
v 16 22 -2
v 17 22 -0
v 17 22 -1
v 17 22 -2
v 17 23 -0
v 17 23 -1
v 17 23 -2
v 18 25 -0
v 18 25 -2
v 18 26 -0
v 18 26 -2
v 23 23 -0
v 23 23 -2
v 23 24 -0
v 23 24 -2
v 24 24 -0
v 24 24 -2
v 24 25 -0
v 24 25 -2
v 14 20 -0
v 14 24 -0
v 14 25 -0
v 16 20 -0
v 16 22 -0
v 16 23 -0
v 17 22 -0
v 17 23 -0
v 17 25 -0
v 17 26 -0
v 18 25 -0
v 18 26 -0
v 23 23 -0
v 23 24 -0
v 24 24 -0
v 24 25 -0
v 14 20 -2
v 14 24 -2
v 14 25 -2
v 16 20 -2
v 16 22 -2
v 17 22 -2
v 17 23 -2
v 17 25 -2
v 17 26 -2
v 18 25 -2
v 18 26 -2
v 23 23 -2
v 23 24 -2
v 24 24 -2
v 24 25 -2
v 14 20 -0
v 16 20 -0
v 14 20 -2
v 16 20 -2
v 16 22 -0
v 17 22 -0
v 16 22 -1
v 17 22 -1
v 16 22 -2
v 17 22 -2
v 17 23 -0
v 23 23 -0
v 17 23 -1
v 17 23 -2
v 23 23 -2
v 23 24 -0
v 24 24 -0
v 23 24 -2
v 24 24 -2
v 14 25 -0
v 17 25 -0
v 18 25 -0
v 24 25 -0
v 14 25 -2
v 17 25 -2
v 18 25 -2
v 24 25 -2
v 17 26 -0
v 18 26 -0
v 17 26 -2
v 18 26 -2

# faces
f 3/3/1 2/3/1 1/3/1
f 4/3/1 2/3/1 3/3/1
f 5/2/1 4/2/1 3/2/1
f 6/2/1 4/2/1 5/2/1
f 9/3/1 8/3/1 7/3/1
f 10/3/1 8/3/1 9/3/1
f 11/3/2 12/3/2 13/3/2
f 13/3/2 12/3/2 14/3/2
f 14/3/2 12/3/2 15/3/2
f 16/1/2 17/1/2 19/1/2
f 17/3/2 18/3/2 20/3/2
f 19/1/2 17/1/2 20/1/2
f 20/3/2 18/3/2 21/3/2
f 22/3/2 23/3/2 24/3/2
f 24/3/2 23/3/2 25/3/2
f 26/3/2 27/3/2 28/3/2
f 28/3/2 27/3/2 29/3/2
f 30/2/2 31/2/2 32/2/2
f 32/2/2 31/2/2 33/2/2
f 37/3/3 35/3/3 34/3/3
f 38/3/3 35/3/3 37/3/3
f 39/3/3 35/3/3 38/3/3
f 40/1/3 39/1/3 38/1/3
f 41/3/3 35/3/3 39/3/3
f 41/1/3 39/1/3 40/1/3
f 42/2/3 36/2/3 35/2/3
f 44/3/3 43/3/3 42/3/3
f 44/2/3 42/2/3 35/2/3
f 45/3/3 43/3/3 44/3/3
f 46/3/3 35/3/3 41/3/3
f 47/2/3 44/2/3 35/2/3
f 47/3/3 35/3/3 46/3/3
f 48/2/3 44/2/3 47/2/3
f 49/2/3 44/2/3 48/2/3
f 50/3/4 51/3/4 53/3/4
f 53/3/4 51/3/4 54/3/4
f 54/3/4 51/3/4 55/3/4
f 55/3/4 51/3/4 56/3/4
f 51/2/4 52/2/4 57/2/4
f 57/3/4 58/3/4 59/3/4
f 51/2/4 57/2/4 59/2/4
f 59/3/4 58/3/4 60/3/4
f 56/3/4 51/3/4 61/3/4
f 51/2/4 59/2/4 62/2/4
f 61/3/4 51/3/4 62/3/4
f 62/2/4 59/2/4 63/2/4
f 63/2/4 59/2/4 64/2/4
f 67/3/5 66/3/5 65/3/5
f 68/3/5 66/3/5 67/3/5
f 71/1/5 70/1/5 69/1/5
f 72/1/5 70/1/5 71/1/5
f 73/3/5 72/3/5 71/3/5
f 74/3/5 72/3/5 73/3/5
f 77/3/5 76/3/5 75/3/5
f 78/3/5 76/3/5 77/3/5
f 79/3/5 76/3/5 78/3/5
f 82/2/5 81/2/5 80/2/5
f 83/2/5 81/2/5 82/2/5
f 84/2/6 85/2/6 88/2/6
f 88/2/6 85/2/6 89/2/6
f 86/2/6 87/2/6 90/2/6
f 90/2/6 87/2/6 91/2/6
f 92/3/6 93/3/6 94/3/6
f 94/3/6 93/3/6 95/3/6
