# MagicaVoxel @ ephtracy

# material
mtllib JawTop.mtl
usemtl palette

# normals
vn -1 0 0
vn 1 0 0
vn 0 0 1
vn 0 0 -1
vn 0 -1 0
vn 0 1 0

# texcoords
vt 0.154297 0.5
vt 0.841797 0.5
vt 0.900391 0.5
vt 0.958984 0.5
vt 0.994141 0.5

# verts
v -4 27 -1
v -4 27 -2
v -4 28 15
v -4 28 14
v -4 28 13
v -4 28 12
v -4 28 11
v -4 28 10
v -4 28 9
v -4 28 8
v -4 28 7
v -4 28 6
v -4 28 5
v -4 28 4
v -4 28 3
v -4 28 2
v -4 28 1
v -4 28 -0
v -4 28 -1
v -4 28 -2
v -4 28 -3
v -4 29 15
v -4 29 14
v -4 29 13
v -4 29 12
v -4 29 11
v -4 29 10
v -4 29 9
v -4 29 8
v -4 29 7
v -4 29 6
v -4 29 5
v -4 29 4
v -4 29 3
v -4 29 2
v -4 29 1
v -4 29 -0
v -4 29 -3
v -4 29 -6
v -4 33 15
v -4 33 14
v -4 33 -0
v -4 33 -3
v -4 34 14
v -4 34 12
v -4 35 12
v -4 35 10
v -4 36 10
v -4 36 8
v -4 36 -0
v -4 36 -3
v -4 37 8
v -4 37 6
v -4 38 6
v -4 38 4
v -4 38 -5
v -4 38 -6
v -4 39 4
v -4 39 -5
v -3 33 -0
v -3 33 -3
v -3 34 -1
v -3 34 -2
v -3 35 -1
v -3 35 -2
v -3 36 -0
v -3 36 -3
v -2 28 15
v -2 28 14
v -2 29 15
v -2 29 14
v 0 28 15
v 0 28 14
v 0 29 15
v 0 29 14
v 2 28 15
v 2 28 14
v 2 29 15
v 2 29 14
v 3 28 14
v 3 28 13
v 3 28 12
v 3 28 11
v 3 28 10
v 3 28 9
v 3 28 8
v 3 28 7
v 3 28 6
v 3 28 5
v 3 28 4
v 3 28 3
v 3 28 2
v 3 28 1
v 3 29 14
v 3 29 13
v 3 29 12
v 3 29 11
v 3 29 10
v 3 29 9
v 3 29 8
v 3 29 7
v 3 29 6
v 3 29 5
v 3 29 4
v 3 29 3
v 3 29 2
v 3 29 1
v -3 28 15
v -3 28 14
v -3 28 13
v -3 28 12
v -3 28 11
v -3 28 10
v -3 28 9
v -3 28 8
v -3 28 7
v -3 28 6
v -3 28 5
v -3 28 4
v -3 28 3
v -3 28 2
v -3 28 1
v -3 28 -0
v -3 29 15
v -3 29 14
v -3 29 13
v -3 29 12
v -3 29 11
v -3 29 10
v -3 29 9
v -3 29 8
v -3 29 7
v -3 29 6
v -3 29 5
v -3 29 4
v -3 29 3
v -3 29 2
v -3 29 1
v -3 29 -0
v -1 28 15
v -1 28 14
v -1 29 15
v -1 29 14
v 1 28 15
v 1 28 14
v 1 29 15
v 1 29 14
v 3 28 15
v 3 28 14
v 3 29 15
v 3 29 14
v 3 33 -0
v 3 33 -3
v 3 34 -1
v 3 34 -2
v 3 35 -1
v 3 35 -2
v 3 36 -0
v 3 36 -3
v 4 27 -1
v 4 27 -2
v 4 28 14
v 4 28 13
v 4 28 12
v 4 28 11
v 4 28 10
v 4 28 9
v 4 28 8
v 4 28 7
v 4 28 6
v 4 28 5
v 4 28 4
v 4 28 3
v 4 28 2
v 4 28 1
v 4 28 -0
v 4 28 -1
v 4 28 -2
v 4 28 -3
v 4 29 15
v 4 29 14
v 4 29 13
v 4 29 12
v 4 29 11
v 4 29 10
v 4 29 9
v 4 29 8
v 4 29 7
v 4 29 6
v 4 29 5
v 4 29 4
v 4 29 3
v 4 29 2
v 4 29 1
v 4 29 -0
v 4 29 -3
v 4 29 -6
v 4 33 15
v 4 33 14
v 4 33 -0
v 4 33 -3
v 4 34 14
v 4 34 12
v 4 35 12
v 4 35 10
v 4 36 10
v 4 36 8
v 4 36 -0
v 4 36 -3
v 4 37 8
v 4 37 6
v 4 38 6
v 4 38 4
v 4 38 -5
v 4 38 -6
v 4 39 4
v 4 39 -5
v -4 28 15
v -4 29 15
v -4 33 15
v -3 28 15
v -3 29 15
v -2 28 15
v -2 29 15
v -1 28 15
v -1 29 15
v 0 28 15
v 0 29 15
v 1 28 15
v 1 29 15
v 2 28 15
v 2 29 15
v 3 28 15
v 3 29 15
v 4 29 15
v 4 33 15
v -4 33 14
v -4 34 14
v 3 28 14
v 3 29 14
v 4 28 14
v 4 29 14
v 4 33 14
v 4 34 14
v -4 28 13
v -4 29 13
v -3 28 13
v -3 29 13
v -4 34 12
v -4 35 12
v 3 28 12
v 3 29 12
v 4 28 12
v 4 29 12
v 4 34 12
v 4 35 12
v -4 28 11
v -4 29 11
v -3 28 11
v -3 29 11
v -4 35 10
v -4 36 10
v 3 28 10
v 3 29 10
v 4 28 10
v 4 29 10
v 4 35 10
v 4 36 10
v -4 28 9
v -4 29 9
v -3 28 9
v -3 29 9
v -4 36 8
v -4 37 8
v 3 28 8
v 3 29 8
v 4 28 8
v 4 29 8
v 4 36 8
v 4 37 8
v -4 28 7
v -4 29 7
v -3 28 7
v -3 29 7
v -4 37 6
v -4 38 6
v 3 28 6
v 3 29 6
v 4 28 6
v 4 29 6
v 4 37 6
v 4 38 6
v -4 28 5
v -4 29 5
v -3 28 5
v -3 29 5
v -4 38 4
v -4 39 4
v 3 28 4
v 3 29 4
v 4 28 4
v 4 29 4
v 4 38 4
v 4 39 4
v -4 28 3
v -4 29 3
v -3 28 3
v -3 29 3
v 3 28 2
v 3 29 2
v 4 28 2
v 4 29 2
v -4 28 1
v -4 29 1
v -3 28 1
v -3 29 1
v -3 28 -0
v -3 29 -0
v 3 28 -0
v 3 29 -0
v 4 28 -0
v 4 29 -0
v -4 27 -1
v -4 28 -1
v -3 27 -1
v -3 28 -1
v 3 27 -1
v 3 28 -1
v 4 27 -1
v 4 28 -1
v -4 33 -3
v -4 36 -3
v -3 33 -3
v -3 36 -3
v 3 33 -3
v 3 36 -3
v 4 33 -3
v 4 36 -3
v -4 28 14
v -4 29 14
v -3 28 14
v -3 29 14
v -2 28 14
v -2 29 14
v -1 28 14
v -1 29 14
v 0 28 14
v 0 29 14
v 1 28 14
v 1 29 14
v 2 28 14
v 2 29 14
v 3 28 14
v 3 29 14
v 3 28 13
v 3 29 13
v 4 28 13
v 4 29 13
v -4 28 12
v -4 29 12
v -3 28 12
v -3 29 12
v 3 28 11
v 3 29 11
v 4 28 11
v 4 29 11
v -4 28 10
v -4 29 10
v -3 28 10
v -3 29 10
v 3 28 9
v 3 29 9
v 4 28 9
v 4 29 9
v -4 28 8
v -4 29 8
v -3 28 8
v -3 29 8
v 3 28 7
v 3 29 7
v 4 28 7
v 4 29 7
v -4 28 6
v -4 29 6
v -3 28 6
v -3 29 6
v 3 28 5
v 3 29 5
v 4 28 5
v 4 29 5
v -4 28 4
v -4 29 4
v -3 28 4
v -3 29 4
v 3 28 3
v 3 29 3
v 4 28 3
v 4 29 3
v -4 28 2
v -4 29 2
v -3 28 2
v -3 29 2
v 3 28 1
v 3 29 1
v 4 28 1
v 4 29 1
v -4 33 -0
v -4 36 -0
v -3 33 -0
v -3 36 -0
v 3 33 -0
v 3 36 -0
v 4 33 -0
v 4 36 -0
v -4 27 -2
v -4 28 -2
v -3 27 -2
v -3 28 -2
v 3 27 -2
v 3 28 -2
v 4 27 -2
v 4 28 -2
v -4 28 -3
v -4 29 -3
v -3 28 -3
v -3 29 -3
v 3 28 -3
v 3 29 -3
v 4 28 -3
v 4 29 -3
v -4 38 -5
v -4 39 -5
v 4 38 -5
v 4 39 -5
v -4 29 -6
v -4 38 -6
v 4 29 -6
v 4 38 -6
v -4 27 -1
v -3 27 -1
v 3 27 -1
v 4 27 -1
v -4 27 -2
v -3 27 -2
v 3 27 -2
v 4 27 -2
v -4 28 15
v -3 28 15
v -2 28 15
v -1 28 15
v 0 28 15
v 1 28 15
v 2 28 15
v 3 28 15
v -4 28 14
v -3 28 14
v -2 28 14
v -1 28 14
v 0 28 14
v 1 28 14
v 2 28 14
v 3 28 14
v 4 28 14
v -4 28 13
v -3 28 13
v 3 28 13
v 4 28 13
v -4 28 12
v -3 28 12
v 3 28 12
v 4 28 12
v -4 28 11
v -3 28 11
v 3 28 11
v 4 28 11
v -4 28 10
v -3 28 10
v 3 28 10
v 4 28 10
v -4 28 9
v -3 28 9
v 3 28 9
v 4 28 9
v -4 28 8
v -3 28 8
v 3 28 8
v 4 28 8
v -4 28 7
v -3 28 7
v 3 28 7
v 4 28 7
v -4 28 6
v -3 28 6
v 3 28 6
v 4 28 6
v -4 28 5
v -3 28 5
v 3 28 5
v 4 28 5
v -4 28 4
v -3 28 4
v 3 28 4
v 4 28 4
v -4 28 3
v -3 28 3
v 3 28 3
v 4 28 3
v -4 28 2
v -3 28 2
v 3 28 2
v 4 28 2
v -4 28 1
v -3 28 1
v 3 28 1
v 4 28 1
v -4 28 -0
v -3 28 -0
v 3 28 -0
v 4 28 -0
v -4 28 -1
v -3 28 -1
v 3 28 -1
v 4 28 -1
v -4 28 -2
v -3 28 -2
v 3 28 -2
v 4 28 -2
v -4 28 -3
v -3 28 -3
v 3 28 -3
v 4 28 -3
v -3 29 15
v -2 29 15
v -1 29 15
v 0 29 15
v 1 29 15
v 2 29 15
v 3 29 15
v 4 29 15
v -4 29 14
v -3 29 14
v -2 29 14
v -1 29 14
v 0 29 14
v 1 29 14
v 2 29 14
v 3 29 14
v 4 29 14
v -4 29 13
v -3 29 13
v 3 29 13
v 4 29 13
v -4 29 12
v -3 29 12
v 3 29 12
v 4 29 12
v -4 29 11
v -3 29 11
v 3 29 11
v 4 29 11
v -4 29 10
v -3 29 10
v 3 29 10
v 4 29 10
v -4 29 9
v -3 29 9
v 3 29 9
v 4 29 9
v -4 29 8
v -3 29 8
v 3 29 8
v 4 29 8
v -4 29 7
v -3 29 7
v 3 29 7
v 4 29 7
v -4 29 6
v -3 29 6
v 3 29 6
v 4 29 6
v -4 29 5
v -3 29 5
v 3 29 5
v 4 29 5
v -4 29 4
v -3 29 4
v 3 29 4
v 4 29 4
v -4 29 3
v -3 29 3
v 3 29 3
v 4 29 3
v -4 29 2
v -3 29 2
v 3 29 2
v 4 29 2
v -4 29 1
v -3 29 1
v 3 29 1
v 4 29 1
v -3 29 -0
v 3 29 -0
v 4 29 -0
v -4 29 -3
v -3 29 -3
v 3 29 -3
v 4 29 -3
v -3 29 -5
v 3 29 -5
v -4 29 -6
v 4 29 -6
v -4 36 -0
v -3 36 -0
v 3 36 -0
v 4 36 -0
v -4 36 -3
v -3 36 -3
v 3 36 -3
v 4 36 -3
v -4 33 15
v 4 33 15
v -4 33 14
v 4 33 14
v -4 33 -0
v -3 33 -0
v 3 33 -0
v 4 33 -0
v -4 33 -3
v -3 33 -3
v 3 33 -3
v 4 33 -3
v -4 34 14
v 4 34 14
v -4 34 12
v 4 34 12
v -4 35 12
v 4 35 12
v -4 35 10
v 4 35 10
v -4 36 10
v 4 36 10
v -4 36 8
v 4 36 8
v -4 37 8
v 4 37 8
v -4 37 6
v 4 37 6
v -4 38 6
v 4 38 6
v -4 38 4
v 4 38 4
v -4 38 -5
v 4 38 -5
v -4 38 -6
v 4 38 -6
v -4 39 4
v 4 39 4
v -4 39 -5
v 4 39 -5

# faces
f 19/1/1 2/1/1 1/1/1
f 20/1/1 2/1/1 19/1/1
f 22/4/1 4/4/1 3/4/1
f 23/4/1 4/4/1 22/4/1
f 24/4/1 6/4/1 5/4/1
f 25/4/1 6/4/1 24/4/1
f 26/4/1 8/4/1 7/4/1
f 27/4/1 8/4/1 26/4/1
f 28/4/1 10/4/1 9/4/1
f 29/4/1 10/4/1 28/4/1
f 30/4/1 12/4/1 11/4/1
f 31/4/1 12/4/1 30/4/1
f 32/4/1 14/4/1 13/4/1
f 33/4/1 14/4/1 32/4/1
f 34/4/1 16/4/1 15/4/1
f 35/4/1 16/4/1 34/4/1
f 36/4/1 18/4/1 17/4/1
f 37/1/1 21/1/1 20/1/1
f 37/1/1 19/1/1 18/1/1
f 37/4/1 18/4/1 36/4/1
f 37/1/1 20/1/1 19/1/1
f 38/1/1 21/1/1 37/1/1
f 40/1/1 35/1/1 34/1/1
f 40/1/1 39/1/1 38/1/1
f 40/1/1 38/1/1 37/1/1
f 40/1/1 37/1/1 36/1/1
f 40/1/1 36/1/1 35/1/1
f 40/1/1 32/1/1 31/1/1
f 40/1/1 23/1/1 22/1/1
f 40/1/1 30/1/1 29/1/1
f 40/1/1 25/1/1 24/1/1
f 40/1/1 28/1/1 27/1/1
f 40/1/1 27/1/1 26/1/1
f 40/1/1 26/1/1 25/1/1
f 40/1/1 29/1/1 28/1/1
f 40/1/1 24/1/1 23/1/1
f 40/1/1 31/1/1 30/1/1
f 40/1/1 33/1/1 32/1/1
f 40/1/1 34/1/1 33/1/1
f 41/1/1 39/1/1 40/1/1
f 42/1/1 39/1/1 41/1/1
f 43/1/1 39/1/1 42/1/1
f 44/1/1 42/1/1 41/1/1
f 45/1/1 42/1/1 44/1/1
f 46/1/1 42/1/1 45/1/1
f 47/1/1 42/1/1 46/1/1
f 48/1/1 42/1/1 47/1/1
f 49/1/1 42/1/1 48/1/1
f 50/1/1 42/1/1 49/1/1
f 51/1/1 39/1/1 43/1/1
f 52/1/1 50/1/1 49/1/1
f 52/1/1 51/1/1 50/1/1
f 53/1/1 51/1/1 52/1/1
f 54/1/1 51/1/1 53/1/1
f 55/1/1 51/1/1 54/1/1
f 56/1/1 39/1/1 51/1/1
f 56/1/1 51/1/1 55/1/1
f 57/1/1 39/1/1 56/1/1
f 58/1/1 56/1/1 55/1/1
f 59/1/1 56/1/1 58/1/1
f 62/4/1 61/4/1 60/4/1
f 63/4/1 61/4/1 62/4/1
f 64/4/1 62/4/1 60/4/1
f 64/5/1 63/5/1 62/5/1
f 65/4/1 61/4/1 63/4/1
f 65/5/1 63/5/1 64/5/1
f 66/4/1 64/4/1 60/4/1
f 66/4/1 65/4/1 64/4/1
f 67/4/1 61/4/1 65/4/1
f 67/4/1 65/4/1 66/4/1
f 70/4/1 69/4/1 68/4/1
f 71/4/1 69/4/1 70/4/1
f 74/4/1 73/4/1 72/4/1
f 75/4/1 73/4/1 74/4/1
f 78/4/1 77/4/1 76/4/1
f 79/4/1 77/4/1 78/4/1
f 94/4/1 81/4/1 80/4/1
f 95/4/1 81/4/1 94/4/1
f 96/4/1 83/4/1 82/4/1
f 97/4/1 83/4/1 96/4/1
f 98/4/1 85/4/1 84/4/1
f 99/4/1 85/4/1 98/4/1
f 100/4/1 87/4/1 86/4/1
f 101/4/1 87/4/1 100/4/1
f 102/4/1 89/4/1 88/4/1
f 103/4/1 89/4/1 102/4/1
f 104/4/1 91/4/1 90/4/1
f 105/4/1 91/4/1 104/4/1
f 106/4/1 93/4/1 92/4/1
f 107/4/1 93/4/1 106/4/1
f 108/4/2 109/4/2 124/4/2
f 124/4/2 109/4/2 125/4/2
f 110/4/2 111/4/2 126/4/2
f 126/4/2 111/4/2 127/4/2
f 112/4/2 113/4/2 128/4/2
f 128/4/2 113/4/2 129/4/2
f 114/4/2 115/4/2 130/4/2
f 130/4/2 115/4/2 131/4/2
f 116/4/2 117/4/2 132/4/2
f 132/4/2 117/4/2 133/4/2
f 118/4/2 119/4/2 134/4/2
f 134/4/2 119/4/2 135/4/2
f 120/4/2 121/4/2 136/4/2
f 136/4/2 121/4/2 137/4/2
f 122/4/2 123/4/2 138/4/2
f 138/4/2 123/4/2 139/4/2
f 140/4/2 141/4/2 142/4/2
f 142/4/2 141/4/2 143/4/2
f 144/4/2 145/4/2 146/4/2
f 146/4/2 145/4/2 147/4/2
f 148/4/2 149/4/2 150/4/2
f 150/4/2 149/4/2 151/4/2
f 152/4/2 153/4/2 154/4/2
f 154/4/2 153/4/2 155/4/2
f 152/4/2 154/4/2 156/4/2
f 154/5/2 155/5/2 156/5/2
f 155/4/2 153/4/2 157/4/2
f 156/5/2 155/5/2 157/5/2
f 152/4/2 156/4/2 158/4/2
f 156/4/2 157/4/2 158/4/2
f 157/4/2 153/4/2 159/4/2
f 158/4/2 157/4/2 159/4/2
f 160/1/2 161/1/2 177/1/2
f 177/1/2 161/1/2 178/1/2
f 162/4/2 163/4/2 181/4/2
f 181/4/2 163/4/2 182/4/2
f 164/4/2 165/4/2 183/4/2
f 183/4/2 165/4/2 184/4/2
f 166/4/2 167/4/2 185/4/2
f 185/4/2 167/4/2 186/4/2
f 168/4/2 169/4/2 187/4/2
f 187/4/2 169/4/2 188/4/2
f 170/4/2 171/4/2 189/4/2
f 189/4/2 171/4/2 190/4/2
f 172/4/2 173/4/2 191/4/2
f 191/4/2 173/4/2 192/4/2
f 174/4/2 175/4/2 193/4/2
f 193/4/2 175/4/2 194/4/2
f 178/1/2 179/1/2 195/1/2
f 176/1/2 177/1/2 195/1/2
f 177/1/2 178/1/2 195/1/2
f 195/1/2 179/1/2 196/1/2
f 191/1/2 192/1/2 198/1/2
f 196/1/2 197/1/2 198/1/2
f 195/1/2 196/1/2 198/1/2
f 194/1/2 195/1/2 198/1/2
f 193/1/2 194/1/2 198/1/2
f 190/1/2 191/1/2 198/1/2
f 181/1/2 182/1/2 198/1/2
f 188/1/2 189/1/2 198/1/2
f 183/1/2 184/1/2 198/1/2
f 186/1/2 187/1/2 198/1/2
f 185/1/2 186/1/2 198/1/2
f 184/1/2 185/1/2 198/1/2
f 187/1/2 188/1/2 198/1/2
f 182/1/2 183/1/2 198/1/2
f 189/1/2 190/1/2 198/1/2
f 180/1/2 181/1/2 198/1/2
f 192/1/2 193/1/2 198/1/2
f 198/1/2 197/1/2 199/1/2
f 199/1/2 197/1/2 200/1/2
f 200/1/2 197/1/2 201/1/2
f 199/1/2 200/1/2 202/1/2
f 202/1/2 200/1/2 203/1/2
f 203/1/2 200/1/2 204/1/2
f 204/1/2 200/1/2 205/1/2
f 205/1/2 200/1/2 206/1/2
f 206/1/2 200/1/2 207/1/2
f 207/1/2 200/1/2 208/1/2
f 201/1/2 197/1/2 209/1/2
f 207/1/2 208/1/2 210/1/2
f 208/1/2 209/1/2 210/1/2
f 210/1/2 209/1/2 211/1/2
f 211/1/2 209/1/2 212/1/2
f 212/1/2 209/1/2 213/1/2
f 209/1/2 197/1/2 214/1/2
f 213/1/2 209/1/2 214/1/2
f 214/1/2 197/1/2 215/1/2
f 213/1/2 214/1/2 216/1/2
f 216/1/2 214/1/2 217/1/2
f 221/4/3 219/4/3 218/4/3
f 222/1/3 220/1/3 219/1/3
f 222/4/3 219/4/3 221/4/3
f 224/1/3 220/1/3 222/1/3
f 225/4/3 224/4/3 223/4/3
f 226/1/3 220/1/3 224/1/3
f 226/4/3 224/4/3 225/4/3
f 228/1/3 220/1/3 226/1/3
f 229/4/3 228/4/3 227/4/3
f 230/1/3 220/1/3 228/1/3
f 230/4/3 228/4/3 229/4/3
f 232/1/3 220/1/3 230/1/3
f 233/4/3 232/4/3 231/4/3
f 234/1/3 220/1/3 232/1/3
f 234/4/3 232/4/3 233/4/3
f 235/1/3 220/1/3 234/1/3
f 236/1/3 220/1/3 235/1/3
f 241/4/3 240/4/3 239/4/3
f 242/4/3 240/4/3 241/4/3
f 243/1/3 238/1/3 237/1/3
f 244/1/3 238/1/3 243/1/3
f 247/4/3 246/4/3 245/4/3
f 248/4/3 246/4/3 247/4/3
f 253/4/3 252/4/3 251/4/3
f 254/4/3 252/4/3 253/4/3
f 255/1/3 250/1/3 249/1/3
f 256/1/3 250/1/3 255/1/3
f 259/4/3 258/4/3 257/4/3
f 260/4/3 258/4/3 259/4/3
f 265/4/3 264/4/3 263/4/3
f 266/4/3 264/4/3 265/4/3
f 267/1/3 262/1/3 261/1/3
f 268/1/3 262/1/3 267/1/3
f 271/4/3 270/4/3 269/4/3
f 272/4/3 270/4/3 271/4/3
f 277/4/3 276/4/3 275/4/3
f 278/4/3 276/4/3 277/4/3
f 279/1/3 274/1/3 273/1/3
f 280/1/3 274/1/3 279/1/3
f 283/4/3 282/4/3 281/4/3
f 284/4/3 282/4/3 283/4/3
f 289/4/3 288/4/3 287/4/3
f 290/4/3 288/4/3 289/4/3
f 291/1/3 286/1/3 285/1/3
f 292/1/3 286/1/3 291/1/3
f 295/4/3 294/4/3 293/4/3
f 296/4/3 294/4/3 295/4/3
f 301/4/3 300/4/3 299/4/3
f 302/4/3 300/4/3 301/4/3
f 303/1/3 298/1/3 297/1/3
f 304/1/3 298/1/3 303/1/3
f 307/4/3 306/4/3 305/4/3
f 308/4/3 306/4/3 307/4/3
f 311/4/3 310/4/3 309/4/3
f 312/4/3 310/4/3 311/4/3
f 315/4/3 314/4/3 313/4/3
f 316/4/3 314/4/3 315/4/3
f 319/2/3 318/2/3 317/2/3
f 320/2/3 318/2/3 319/2/3
f 321/1/3 320/1/3 319/1/3
f 322/1/3 320/1/3 321/1/3
f 325/1/3 324/1/3 323/1/3
f 326/1/3 324/1/3 325/1/3
f 327/2/3 326/2/3 325/2/3
f 328/2/3 326/2/3 327/2/3
f 329/1/3 328/1/3 327/1/3
f 330/1/3 328/1/3 329/1/3
f 333/1/3 332/1/3 331/1/3
f 334/1/3 332/1/3 333/1/3
f 337/1/3 336/1/3 335/1/3
f 338/1/3 336/1/3 337/1/3
f 339/4/4 340/4/4 341/4/4
f 341/4/4 340/4/4 342/4/4
f 343/4/4 344/4/4 345/4/4
f 345/4/4 344/4/4 346/4/4
f 347/4/4 348/4/4 349/4/4
f 349/4/4 348/4/4 350/4/4
f 351/4/4 352/4/4 353/4/4
f 353/4/4 352/4/4 354/4/4
f 355/4/4 356/4/4 357/4/4
f 357/4/4 356/4/4 358/4/4
f 359/4/4 360/4/4 361/4/4
f 361/4/4 360/4/4 362/4/4
f 363/4/4 364/4/4 365/4/4
f 365/4/4 364/4/4 366/4/4
f 367/4/4 368/4/4 369/4/4
f 369/4/4 368/4/4 370/4/4
f 371/4/4 372/4/4 373/4/4
f 373/4/4 372/4/4 374/4/4
f 375/4/4 376/4/4 377/4/4
f 377/4/4 376/4/4 378/4/4
f 379/4/4 380/4/4 381/4/4
f 381/4/4 380/4/4 382/4/4
f 383/4/4 384/4/4 385/4/4
f 385/4/4 384/4/4 386/4/4
f 387/4/4 388/4/4 389/4/4
f 389/4/4 388/4/4 390/4/4
f 391/4/4 392/4/4 393/4/4
f 393/4/4 392/4/4 394/4/4
f 395/4/4 396/4/4 397/4/4
f 397/4/4 396/4/4 398/4/4
f 399/4/4 400/4/4 401/4/4
f 401/4/4 400/4/4 402/4/4
f 403/4/4 404/4/4 405/4/4
f 405/4/4 404/4/4 406/4/4
f 407/1/4 408/1/4 409/1/4
f 409/1/4 408/1/4 410/1/4
f 411/1/4 412/1/4 413/1/4
f 413/1/4 412/1/4 414/1/4
f 415/1/4 416/1/4 417/1/4
f 417/1/4 416/1/4 418/1/4
f 417/2/4 418/2/4 419/2/4
f 419/2/4 418/2/4 420/2/4
f 419/1/4 420/1/4 421/1/4
f 421/1/4 420/1/4 422/1/4
f 423/1/4 424/1/4 425/1/4
f 425/1/4 424/1/4 426/1/4
f 425/2/4 426/2/4 427/2/4
f 427/2/4 426/2/4 428/2/4
f 427/1/4 428/1/4 429/1/4
f 429/1/4 428/1/4 430/1/4
f 431/1/4 432/1/4 433/1/4
f 433/1/4 432/1/4 434/1/4
f 435/1/4 436/1/4 437/1/4
f 437/1/4 436/1/4 438/1/4
f 443/1/5 440/1/5 439/1/5
f 444/2/5 441/2/5 440/2/5
f 444/1/5 440/1/5 443/1/5
f 445/1/5 442/1/5 441/1/5
f 445/2/5 441/2/5 444/2/5
f 446/1/5 442/1/5 445/1/5
f 455/4/5 448/4/5 447/4/5
f 456/4/5 448/4/5 455/4/5
f 457/4/5 450/4/5 449/4/5
f 458/4/5 450/4/5 457/4/5
f 459/4/5 452/4/5 451/4/5
f 460/4/5 452/4/5 459/4/5
f 461/4/5 454/4/5 453/4/5
f 462/4/5 454/4/5 461/4/5
f 466/4/5 463/4/5 462/4/5
f 467/4/5 463/4/5 466/4/5
f 468/4/5 465/4/5 464/4/5
f 469/4/5 465/4/5 468/4/5
f 474/4/5 471/4/5 470/4/5
f 475/4/5 471/4/5 474/4/5
f 476/4/5 473/4/5 472/4/5
f 477/4/5 473/4/5 476/4/5
f 482/4/5 479/4/5 478/4/5
f 483/4/5 479/4/5 482/4/5
f 484/4/5 481/4/5 480/4/5
f 485/4/5 481/4/5 484/4/5
f 490/4/5 487/4/5 486/4/5
f 491/4/5 487/4/5 490/4/5
f 492/4/5 489/4/5 488/4/5
f 493/4/5 489/4/5 492/4/5
f 498/4/5 495/4/5 494/4/5
f 499/4/5 495/4/5 498/4/5
f 500/4/5 497/4/5 496/4/5
f 501/4/5 497/4/5 500/4/5
f 506/4/5 503/4/5 502/4/5
f 507/4/5 503/4/5 506/4/5
f 508/4/5 505/4/5 504/4/5
f 509/4/5 505/4/5 508/4/5
f 514/4/5 511/4/5 510/4/5
f 515/4/5 511/4/5 514/4/5
f 516/4/5 513/4/5 512/4/5
f 517/4/5 513/4/5 516/4/5
f 520/1/5 517/1/5 516/1/5
f 521/2/5 518/2/5 517/2/5
f 521/1/5 517/1/5 520/1/5
f 522/1/5 519/1/5 518/1/5
f 522/2/5 518/2/5 521/2/5
f 523/1/5 519/1/5 522/1/5
f 528/1/5 525/1/5 524/1/5
f 529/2/5 526/2/5 525/2/5
f 529/1/5 525/1/5 528/1/5
f 530/1/5 527/1/5 526/1/5
f 530/2/5 526/2/5 529/2/5
f 531/1/5 527/1/5 530/1/5
f 541/1/5 533/1/5 532/1/5
f 542/1/5 533/1/5 541/1/5
f 543/1/5 535/1/5 534/1/5
f 544/1/5 535/1/5 543/1/5
f 545/1/5 537/1/5 536/1/5
f 546/1/5 537/1/5 545/1/5
f 547/1/5 539/1/5 538/1/5
f 548/1/5 539/1/5 547/1/5
f 549/1/5 541/1/5 540/1/5
f 550/2/5 546/2/5 545/2/5
f 550/1/5 541/1/5 549/1/5
f 550/2/5 542/2/5 541/2/5
f 550/2/5 547/2/5 546/2/5
f 550/2/5 544/2/5 543/2/5
f 550/2/5 545/2/5 544/2/5
f 550/2/5 543/2/5 542/2/5
f 551/2/5 547/2/5 550/2/5
f 554/2/5 551/2/5 550/2/5
f 555/1/5 552/1/5 551/1/5
f 555/2/5 551/2/5 554/2/5
f 556/1/5 552/1/5 555/1/5
f 557/1/5 554/1/5 553/1/5
f 558/2/5 555/2/5 554/2/5
f 558/1/5 554/1/5 557/1/5
f 559/2/5 555/2/5 558/2/5
f 562/2/5 559/2/5 558/2/5
f 563/1/5 560/1/5 559/1/5
f 563/2/5 559/2/5 562/2/5
f 564/1/5 560/1/5 563/1/5
f 565/1/5 562/1/5 561/1/5
f 566/2/5 563/2/5 562/2/5
f 566/1/5 562/1/5 565/1/5
f 567/2/5 563/2/5 566/2/5
f 570/2/5 567/2/5 566/2/5
f 571/1/5 568/1/5 567/1/5
f 571/2/5 567/2/5 570/2/5
f 572/1/5 568/1/5 571/1/5
f 573/1/5 570/1/5 569/1/5
f 574/2/5 571/2/5 570/2/5
f 574/1/5 570/1/5 573/1/5
f 575/2/5 571/2/5 574/2/5
f 578/2/5 575/2/5 574/2/5
f 579/1/5 576/1/5 575/1/5
f 579/2/5 575/2/5 578/2/5
f 580/1/5 576/1/5 579/1/5
f 581/1/5 578/1/5 577/1/5
f 582/2/5 579/2/5 578/2/5
f 582/1/5 578/1/5 581/1/5
f 583/2/5 579/2/5 582/2/5
f 586/2/5 583/2/5 582/2/5
f 587/1/5 584/1/5 583/1/5
f 587/2/5 583/2/5 586/2/5
f 588/1/5 584/1/5 587/1/5
f 589/1/5 586/1/5 585/1/5
f 590/2/5 587/2/5 586/2/5
f 590/1/5 586/1/5 589/1/5
f 591/2/5 587/2/5 590/2/5
f 594/2/5 591/2/5 590/2/5
f 595/1/5 592/1/5 591/1/5
f 595/2/5 591/2/5 594/2/5
f 596/1/5 592/1/5 595/1/5
f 597/1/5 594/1/5 593/1/5
f 598/2/5 595/2/5 594/2/5
f 598/1/5 594/1/5 597/1/5
f 599/2/5 595/2/5 598/2/5
f 601/2/5 599/2/5 598/2/5
f 602/1/5 600/1/5 599/1/5
f 602/2/5 599/2/5 601/2/5
f 603/1/5 600/1/5 602/1/5
f 608/1/5 605/1/5 604/1/5
f 608/2/5 606/2/5 605/2/5
f 609/1/5 607/1/5 606/1/5
f 609/2/5 606/2/5 608/2/5
f 610/1/5 608/1/5 604/1/5
f 610/1/5 609/1/5 608/1/5
f 611/1/5 607/1/5 609/1/5
f 611/1/5 609/1/5 610/1/5
f 616/1/5 613/1/5 612/1/5
f 617/1/5 613/1/5 616/1/5
f 618/1/5 615/1/5 614/1/5
f 619/1/5 615/1/5 618/1/5
f 620/1/6 621/1/6 622/1/6
f 622/1/6 621/1/6 623/1/6
f 624/1/6 625/1/6 628/1/6
f 628/1/6 625/1/6 629/1/6
f 626/1/6 627/1/6 630/1/6
f 630/1/6 627/1/6 631/1/6
f 632/1/6 633/1/6 634/1/6
f 634/1/6 633/1/6 635/1/6
f 636/1/6 637/1/6 638/1/6
f 638/1/6 637/1/6 639/1/6
f 640/1/6 641/1/6 642/1/6
f 642/1/6 641/1/6 643/1/6
f 644/1/6 645/1/6 646/1/6
f 646/1/6 645/1/6 647/1/6
f 648/1/6 649/1/6 650/1/6
f 650/1/6 649/1/6 651/1/6
f 652/1/6 653/1/6 654/1/6
f 654/1/6 653/1/6 655/1/6
f 656/1/6 657/1/6 658/1/6
f 658/1/6 657/1/6 659/1/6
